<?xml version="1.0" encoding="UTF-8" standalone="no"?>
<svg
   height="140"
   width="230"
   version="1.1"
   id="svg11875"
   sodipodi:docname="feedback-spinners-dark.svg"
   inkscape:version="1.3.2 (091e20ef0f, 2023-11-25)"
   xml:space="preserve"
   xmlns:inkscape="http://www.inkscape.org/namespaces/inkscape"
   xmlns:sodipodi="http://sodipodi.sourceforge.net/DTD/sodipodi-0.dtd"
   xmlns:xlink="http://www.w3.org/1999/xlink"
   xmlns="http://www.w3.org/2000/svg"
   xmlns:svg="http://www.w3.org/2000/svg"><defs
     id="defs11879"><linearGradient
       id="linearGradient1"
       inkscape:collect="always"><stop
         style="stop-color:#57e389;stop-opacity:1"
         offset="0"
         id="stop1" /><stop
         style="stop-color:#8ff0a4;stop-opacity:1"
         offset="1"
         id="stop2" /></linearGradient><linearGradient
       inkscape:collect="always"
       xlink:href="#linearGradient1"
       id="linearGradient2-5"
       x1="100"
       y1="115"
       x2="100"
       y2="0"
       gradientUnits="userSpaceOnUse"
       gradientTransform="translate(2.1230516e-5)" /><linearGradient
       id="linearGradient1-5"
       inkscape:collect="always"><stop
         style="stop-color:#e66100;stop-opacity:1"
         offset="0"
         id="stop1-6" /><stop
         style="stop-color:#e5a50a;stop-opacity:1"
         offset="1"
         id="stop2-2" /></linearGradient><linearGradient
       inkscape:collect="always"
       xlink:href="#linearGradient1-5"
       id="linearGradient2"
       x1="100"
       y1="140"
       x2="100"
       y2="0"
       gradientUnits="userSpaceOnUse"
       gradientTransform="translate(-0.0010057,-140)" /></defs><sodipodi:namedview
     id="namedview11877"
     pagecolor="#505050"
     bordercolor="#ffffff"
     borderopacity="1"
     inkscape:showpageshadow="0"
     inkscape:pageopacity="0"
     inkscape:pagecheckerboard="1"
     inkscape:deskcolor="#505050"
     showgrid="false"
     inkscape:current-layer="svg11875"
     inkscape:zoom="1.5214286"
     inkscape:cx="-104.50704"
     inkscape:cy="-12.488263"
     inkscape:window-width="1920"
     inkscape:window-height="1011"
     inkscape:window-x="0"
     inkscape:window-y="0"
     inkscape:window-maximized="1"><inkscape:grid
       id="grid1"
       units="px"
       originx="0"
       originy="0"
       spacingx="1"
       spacingy="1"
       empcolor="#3f3fff"
       empopacity="0.25098039"
       color="#3f3fff"
       opacity="0.1254902"
       empspacing="5"
       dotted="false"
       gridanglex="30"
       gridanglez="30"
       visible="false" /></sodipodi:namedview><rect
     style="font-variation-settings:normal;vector-effect:none;fill:url(#linearGradient2-5);fill-opacity:0.989855;stroke:none;stroke-width:18;stroke-linecap:round;stroke-linejoin:miter;stroke-miterlimit:4;stroke-dasharray:none;stroke-dashoffset:26.4;stroke-opacity:1;-inkscape-stroke:none;stop-color:#000000"
     width="230"
     height="140"
     x="0.001"
     ry="20"
     rx="20"
     id="rect15200"
     y="0" /><rect
     style="font-variation-settings:normal;vector-effect:none;fill:url(#linearGradient2);fill-opacity:0.989855;stroke:none;stroke-width:18;stroke-linecap:round;stroke-linejoin:miter;stroke-miterlimit:4;stroke-dasharray:none;stroke-dashoffset:26.4;stroke-opacity:1;-inkscape-stroke:none;stop-color:#000000"
     width="230"
     height="140"
     x="0"
     ry="20"
     rx="20"
     id="rect15200-1"
     y="-140"
     transform="scale(1,-1)" /><path
     d="M115.035 42.254c-.36 0-.72.03-1.078.106-12 .624-22.516 8.875-25.813 20.516-3.046 12.062 2.282 24.922 12.97 31.313 10.875 6.062 24.672 4.25 33.61-4.422 8.671-8.938 10.484-22.735 4.421-33.61 6.016 10.906 4.125 24.656-4.547 33.485-8.906 8.594-22.61 10.312-33.313 4.265C90.816 87.595 85.63 74.97 88.566 63.22c-2.843 11.782 2.485 24.282 12.876 30.407 10.625 5.875 24.11 4.016 32.703-4.438 8.375-8.671 10.047-22.125 4.141-32.531 5.813 10.469 3.969 23.813-4.375 32.297-8.547 8.266-21.86 9.922-32.141 4.094-10.063-6.031-15.094-18.282-12.25-29.579-2.75 11.313 2.421 23.438 12.406 29.298 10.188 5.672 23.282 3.86 31.516-4.282 8.063-8.312 9.688-21.36 4-31.344 5.594 10.047 3.797 23-4.234 31.11-8.188 7.953-21.094 9.563-30.938 3.953-9.672-5.781-14.563-17.672-11.797-28.5-2.657 10.86 2.359 22.625 11.953 28.219 9.75 5.453 22.454 3.687 30.329-4.125 7.734-7.953 9.312-20.61 3.828-30.172 5.39 9.61 3.64 22.172-4.063 29.938-7.828 7.625-20.36 9.187-29.766 3.78-9.281-5.515-14-17.03-11.328-27.39-2.563 10.39 2.297 21.781 11.484 27.11 9.329 5.234 21.626 3.53 29.141-3.97 7.423-7.593 8.954-19.859 3.688-28.968 5.172 9.172 3.469 21.344-3.922 28.734-7.469 7.313-19.594 8.829-28.579 3.641-8.875-5.25-13.437-16.406-10.875-26.297-2.453 9.922 2.25 20.938 11.047 26.016 8.891 5.016 20.798 3.36 27.954-3.813 7.094-7.234 8.563-19.11 3.516-27.797 4.953 8.75 3.312 20.531-3.75 27.563-7.11 6.984-18.844 8.453-27.391 3.469-8.485-4.985-12.891-15.766-10.423-25.188-2.375 9.453 2.188 20.11 10.579 24.906 8.469 4.813 19.984 3.204 26.766-3.656 6.781-6.875 8.203-18.344 3.375-26.594 4.734 8.313 3.156 19.688-3.61 26.36-6.75 6.672-18.078 8.078-26.203 3.328-8.078-4.719-12.328-15.157-9.953-24.11-2.282 8.985 2.125 19.282 10.125 23.829 8.031 4.594 19.14 3.031 25.578-3.5 6.47-6.516 7.829-17.594 3.203-25.423 4.532 7.891 3 18.876-3.437 25.188-6.39 6.344-17.329 7.704-25.016 3.157-7.688-4.454-11.797-14.516-9.5-23-2.188 8.515 2.062 18.452 9.656 22.718 7.61 4.375 18.329 2.875 24.391-3.344 6.157-6.14 7.47-16.828 3.063-24.219 4.312 7.454 2.828 18.032-3.297 23.985-6.016 6.047-16.563 7.344-23.829 3.016-7.281-4.203-11.234-13.891-9.031-21.907-2.094 8.047 2 17.61 9.203 21.626 7.172 4.156 17.485 2.703 23.204-3.188 5.828-5.797 7.078-16.078 2.89-23.047 4.094 7.031 2.672 17.219-3.125 22.812-5.672 5.72-15.813 6.97-22.64 2.844-6.892-3.922-10.688-13.25-8.579-20.812-2 7.578 1.938 16.797 8.735 20.531 6.75 3.953 16.672 2.563 22.016-3.031 5.515-5.422 6.718-15.313 2.75-21.844 3.875 6.593 2.5 16.375-2.985 21.61-5.297 5.406-15.047 6.593-21.453 2.703-6.485-3.672-10.126-12.626-8.11-19.72-1.922 7.126 1.875 15.954 8.282 19.438 6.297 3.735 15.844 2.391 20.828-2.875 5.188-5.078 6.344-14.563 2.578-20.672 3.672 6.172 2.344 15.563-2.812 20.438-4.954 5.078-14.297 6.219-20.266 2.531-6.094-3.39-9.579-12-7.657-18.61-1.828 6.641 1.813 15.11 7.813 18.329 5.875 3.516 15.016 2.219 19.64-2.719 4.86-4.703 5.97-13.797 2.423-19.469 3.5 5.703 2.312 14.735-2.547 19.344-4.594 4.86-13.641 6.047-19.344 2.547-5.875-3.188-9.36-11.625-7.47-18.031 1.563-6.5 8.798-12.048 15.486-11.876v-.015c3.25 0 5.89-2.64 5.89-5.89 0-3.25-2.64-5.891-5.89-5.891zm0 0"
     fill="#2e3436"
     style="fill:#fff;fill-opacity:1;stroke-width:4.00006"
     id="path11873" /></svg>
